<svg width="33" height="32" viewBox="0 0 33 32" fill="none" xmlns="http://www.w3.org/2000/svg">
<rect x="0.255554" width="32" height="32" rx="8" fill="#5A55D2"/>
<path fill-rule="evenodd" clip-rule="evenodd" d="M17.2558 8.74974C17.2558 8.19746 16.8081 7.74974 16.2558 7.74974C15.7035 7.74974 15.2558 8.19746 15.2558 8.74974V15H9.00531C8.45303 15 8.00531 15.4477 8.00531 16C8.00531 16.5523 8.45303 17 9.00531 17H15.2558V23.2503C15.2558 23.8025 15.7035 24.2503 16.2558 24.2503C16.8081 24.2503 17.2558 23.8025 17.2558 23.2503V17H23.5058C24.0581 17 24.5058 16.5523 24.5058 16C24.5058 15.4477 24.0581 15 23.5058 15H17.2558V8.74974Z" fill="#FAFCFE"/>
</svg>
